<?xml version="1.0" standalone="no"?>
<!DOCTYPE svg PUBLIC "-//W3C//DTD SVG 20010904//EN"
 "http://www.w3.org/TR/2001/REC-SVG-20010904/DTD/svg10.dtd">
<svg version="1.0" xmlns="http://www.w3.org/2000/svg"
 width="512.000000pt" height="512.000000pt" viewBox="0 0 512.000000 512.000000"
 preserveAspectRatio="xMidYMid meet">
<metadata>
Created by potrace 1.11, written by Peter Selinger 2001-2013
</metadata>
<g transform="translate(0.000000,512.000000) scale(0.100000,-0.100000)"
fill="#000000" stroke="none">
<path d="M2330 5110 c-491 -51 -928 -221 -1319 -513 -123 -92 -396 -364 -488
-487 -593 -794 -688 -1811 -252 -2689 129 -261 281 -470 491 -678 396 -393
876 -631 1448 -719 177 -28 540 -25 725 4 284 45 512 117 764 243 258 128 453
268 659 471 402 398 649 888 739 1468 24 160 24 527 -1 695 -42 289 -114 522
-240 780 -140 285 -292 493 -528 721 -204 197 -398 332 -652 454 -248 120
-476 191 -739 231 -151 23 -473 33 -607 19z m1710 -770 c42 -42 38 -117 -11
-221 -17 -35 -330 -804 -696 -1709 -366 -905 -668 -1648 -672 -1652 -5 -6
-1586 3518 -1598 3562 -5 20 3 20 656 20 l660 0 15 -27 c7 -16 181 -422 386
-903 205 -481 375 -879 378 -884 7 -12 579 1417 647 1619 65 190 84 215 165
215 36 0 55 -5 70 -20z"/>
</g>
</svg>
